<?xml version="1.0" encoding="UTF-8" standalone="no"?>
<svg xmlns:svg="http://www.w3.org/2000/svg" xmlns="http://www.w3.org/2000/svg" version="1.0" width="350" height="350">
    <path style="fill: rgb(255, 102, 0);" d="M 0,0 L 0,350 L 350,350 L 350,0 L 0,0 z M 302.960939,253.12894 L 315.749689,253.12894 L 315.749689,255.33389 L 310.751779,255.33389 L 310.751779,269.29862 L 308.105839,269.29862 L 308.105839,255.33389 L 302.960939,255.33389 L 302.960939,253.12894 z M 318.983629,253.12894 L 323.099539,253.12894 L 327.950439,265.47669 L 332.654349,253.12894 L 336.770259,253.12894 L 336.770259,269.29862 L 334.124319,269.29862 L 334.124319,255.77489 L 333.977319,255.77489 L 328.685429,269.29862 L 327.068459,269.29862 L 321.776569,255.77489 L 321.629569,255.77489 L 321.629569,269.29862 L 318.983629,269.29862 L 318.983629,253.12894 z M 43.07014,270.3276 C 55.747079,270.32764 67.177659,278.41253 67.177659,296.05209 C 67.177709,313.66812 55.747079,321.77657 43.07014,321.77657 L 41.89417,321.77657 L 40.71819,321.62957 L 39.54221,321.48257 L 38.36624,321.33557 L 37.19026,321.18858 L 36.16128,320.89459 L 34.98531,320.6006 L 33.95632,320.1596 L 32.92734,319.8656 L 31.89837,319.42462 L 30.86939,318.83662 L 29.84041,318.24864 L 28.95842,317.66066 L 27.92945,317.07266 L 27.04746,316.33768 L 26.31248,315.45569 L 25.43049,314.7207 L 24.69551,313.83872 L 23.96052,312.95674 L 23.22554,311.92776 L 22.63755,310.89878 L 22.04956,309.86981 L 21.46157,308.69383 L 21.02058,307.51785 L 20.43259,306.34187 L 20.1386,305.0189 L 19.69761,303.69593 L 19.55061,302.22596 L 19.25661,300.75598 L 19.10962,299.28602 L 18.96262,297.66905 L 18.96262,296.05209 C 18.96262,278.41257 30.41085,270.3276 43.07014,270.3276 z M 101.574969,270.62159 C 102.104159,270.62163 102.686269,270.67451 103.191939,270.76859 L 103.191939,282.67534 C 102.986139,282.67539 102.809739,282.67534 102.603959,282.67534 C 97.023939,282.67539 90.885299,283.62201 88.933219,287.96724 L 88.933219,320.3066 L 75.997479,320.3066 L 75.997479,271.65057 L 88.198249,271.65057 L 88.198249,277.38345 C 90.514959,274.30244 96.224329,270.62159 101.574969,270.62159 z M 129.945399,270.62159 C 142.645859,270.62163 149.790009,276.06641 149.790009,285.0273 C 149.790059,285.02725 149.766479,320.3654 149.790009,320.45359 L 138.471229,320.45359 L 137.295259,316.04368 L 136.413269,316.63167 L 135.384299,317.21966 L 134.502319,317.80765 L 133.473339,318.24864 L 132.591349,318.68962 L 131.562359,319.13062 L 130.533399,319.42462 L 129.504409,319.71861 L 128.475439,320.0126 L 127.446459,320.3066 L 126.417479,320.45359 L 125.388499,320.6006 L 124.359509,320.74758 L 123.330539,320.89459 L 122.301549,320.89459 L 121.125579,320.89459 C 112.029449,320.89459 106.719869,314.89118 106.719869,306.78287 C 106.719869,295.86986 116.792249,290.16627 137.442259,287.82024 L 137.442259,285.0273 C 137.442259,281.48757 134.760989,279.44141 129.798409,279.44141 C 124.835839,279.44141 120.790429,281.39354 117.891649,285.0273 L 109.218819,280.1764 C 113.740399,273.83798 120.666999,270.62159 129.945399,270.62159 z M 188.450219,270.62159 C 198.469449,270.62159 203.590929,275.80769 203.590929,286.35027 L 203.590929,320.3066 L 190.802179,320.3066 L 190.802179,288.55524 C 190.802129,282.58132 189.267479,280.0294 184.628299,280.0294 C 180.818179,280.02945 176.890319,281.69346 172.574539,285.32129 L 172.574539,320.3066 L 159.932799,320.3066 L 159.932799,272.97354 L 170.516589,271.50357 L 171.692559,277.23646 C 177.684169,272.85012 182.458679,270.62159 188.450219,270.62159 z M 231.961349,270.62159 C 241.338679,270.59887 244.936369,274.69795 245.926079,277.08946 L 247.102049,271.50357 L 257.832829,271.50357 L 257.832829,317.66066 C 257.832879,325.81008 257.244659,339.13399 234.019319,339.26922 C 224.441039,339.33983 215.503509,335.5766 213.733719,327.21546 L 226.522469,325.1575 C 227.051659,327.5683 228.468749,329.8614 235.636279,329.8614 C 242.298149,329.86145 245.485079,326.73326 245.485079,319.13062 L 245.485079,313.39774 L 245.338089,313.25073 C 243.297819,316.87853 240.134349,320.3066 232.696339,320.3066 C 221.348219,320.30664 212.410749,312.52154 212.410749,296.05209 C 212.410699,279.76486 221.601059,270.64511 231.961349,270.62159 z M 288.261229,270.62159 C 302.314069,270.62159 310.751779,279.46504 310.751779,295.3171 C 310.751779,296.16385 310.604789,296.96935 310.604789,297.81604 L 278.265419,297.81604 C 278.359509,307.05329 282.175589,311.78077 289.731199,311.78077 C 294.576179,311.78077 297.769009,309.75804 300.755989,305.45989 L 310.163799,310.75179 C 306.030239,317.64291 298.592099,321.18858 288.555229,321.18858 L 287.232249,321.18858 L 285.909279,321.18858 L 284.586299,321.04157 L 283.410329,320.74758 L 282.234349,320.6006 L 281.058369,320.3066 L 279.882389,320.0126 L 278.853409,319.57161 L 277.824439,319.13062 L 276.795459,318.54263 L 275.913469,318.10164 L 274.884499,317.51365 L 274.002519,316.77867 L 273.267529,316.19068 L 272.385539,315.45569 L 271.650559,314.57371 L 270.915579,313.83872 L 270.327589,312.95674 L 269.592599,311.92776 L 269.004609,311.04578 L 268.563629,310.0168 L 267.975639,308.98782 L 267.534649,307.81184 L 267.093649,306.63586 L 266.799659,305.45989 L 266.505669,304.28391 L 266.211669,302.96095 L 265.917669,301.63797 L 265.770679,300.31499 L 265.623679,298.99202 L 265.623679,297.52205 L 265.623679,296.05209 C 265.623639,279.8119 274.226039,270.62159 288.261229,270.62159 z M 288.261229,279.14742 C 282.493109,279.14737 278.918089,282.96934 278.412429,289.58421 L 298.110039,289.58421 C 298.110039,283.06342 294.370379,279.14742 288.261229,279.14742 z M 234.901299,279.58841 C 230.303229,279.58837 225.199499,283.04 225.199499,293.99412 C 225.199499,300.03855 225.658169,309.94036 235.048299,309.86981 C 244.791209,309.78165 245.485079,299.88572 245.485079,293.40613 C 245.485079,285.80349 241.810109,279.58841 234.901299,279.58841 z M 43.07014,281.20538 C 33.51543,281.20543 31.75137,289.80181 31.75137,296.05209 C 31.75137,302.29652 33.51538,310.89878 43.07014,310.89878 C 52.648429,310.89874 54.388919,302.29647 54.388919,296.05209 C 54.388969,289.80186 52.648429,281.20538 43.07014,281.20538 z M 137.001269,295.46409 C 125.035739,296.95758 119.361619,300.13277 119.361619,305.90088 C 119.361569,309.15834 121.372589,312.22175 125.094499,312.22175 C 129.116339,312.22171 133.073499,310.54599 137.001269,307.07686 L 137.001269,295.46409 z"/>
</svg>